<svg aria-hidden="true" style="position: absolute; width: 0; height: 0; overflow: hidden;" version="1.1" xmlns="http://www.w3.org/2000/svg" xmlns:xlink="http://www.w3.org/1999/xlink">
<defs>
<symbol id="icon-technologies-icon" viewBox="0 0 32 32">
<path d="M27.8 2.85c-0.2 0.6-0.9 1.2-1.6 1.35-1.15 0.3-1.2 0.4-0.5 1.35 0.35 0.55 0.6 1.45 0.45 2s0 0.95 0.35 0.95c0.45 0 0.55-0.55 0.35-1.85-0.4-2.35 0.75-3.45 2.45-2.3 0.95 0.6 1 0.85 0.5 1.9-0.3 0.7-0.8 1.15-1.15 1-0.35-0.1-0.75 0-0.9 0.25-0.2 0.3 0 0.5 0.45 0.5 0.4 0 1.050 0.15 1.5 0.3 0.6 0.25 0.8 0 0.8-0.85 0-0.6 0.35-1.5 0.8-2 0.7-0.8 0.7-0.9-0.4-1.2-0.65-0.2-1.5-0.8-1.95-1.4l-0.85-1-0.3 1z"></path>
<path d="M11.6 3.4c-3.050 1.65-4.55 5.85-3.1 8.65 0.45 0.85 0.35 0.95-0.85 0.95-1.85 0.050-7.35 3-7.55 4.1-0.1 0.45 0.3 1.1 0.85 1.4 0.85 0.4 1.55 0.25 3.55-0.75 1.5-0.75 2.5-1.050 2.5-0.7s-1.45 2.050-3.25 3.85c-3.4 3.35-3.75 4.050-2.5 5.1 0.6 0.5 1.050 0.3 2.6-0.95 1.75-1.45 3.15-2 3.15-1.25 0 0.2-0.8 1.2-1.8 2.3-1.85 2.050-1.95 2.75-0.55 3.6 0.7 0.45 1.75-0.35 6.3-4.9 5.1-5.1 5.5-5.4 7-5.050 1.15 0.25 2 0.050 3.2-0.7 2.4-1.45 4-3.35 3.65-4.3-0.5-1.4-1.8-1.4-3.7-0.050-2.8 1.95-3.4 1.6-1.4-0.8 1.5-1.75 1.8-2.45 1.8-4.35 0-5.5-5.15-8.65-9.9-6.15zM15.5 3.8c0 1.3-1.35 4.35-2.1 4.75-1.25 0.65-1.2 2.8 0.1 3.2 0.6 0.2 1.3 0.1 1.65-0.15 0.65-0.55 4.35 0.7 4.35 1.45 0 0.55-2.45 1.8-3.75 1.95-2.35 0.25-3.45-0.1-5.050-1.7-1.45-1.45-1.7-2.050-1.7-3.95 0-3.35 2.2-5.75 5.4-5.8 0.6-0.050 1.1 0.1 1.1 0.25zM18.9 5.15c1.35 1.45 2 3.65 1.65 5.45l-0.3 1.35-2.050-0.9c-2.85-1.3-3.25-2.2-2.35-4.9 0.85-2.45 1.5-2.65 3.050-1zM14.9 10.1c-0.3 0.9-1.4 1.050-1.4 0.2 0-0.45 0.35-0.8 0.8-0.8s0.7 0.25 0.6 0.6zM11.1 15c0.9 0.55 2.45 1 3.4 1 2.15 0 4.2 1 4.4 2.1 0.15 0.7-0.15 0.8-1.55 0.55-1.5-0.25-1.85 0-3.95 2.3-1.25 1.4-2.5 2.55-2.75 2.55s-1.35-0.9-2.4-2l-1.95-2 3.3-3.4-1.4-0.2c-0.9-0.1-1.5-0.5-1.6-1.050-0.25-1.2 2.4-1.15 4.5 0.15zM5.7 14.95c0.4 0.6-1.050 1.7-1.7 1.3-0.4-0.25-0.4-0.55 0.050-1.050 0.65-0.8 1.25-0.9 1.65-0.25zM24 15.2c0 0.4-0.25 0.9-0.55 1.1-0.7 0.4-1.65-0.55-1.25-1.25 0.5-0.8 1.8-0.65 1.8 0.15zM3 16.7c0 1.050-1 1.5-1.65 0.85-0.45-0.45-0.4-0.7 0.15-1.050 1.050-0.7 1.5-0.6 1.5 0.2zM21.85 16.85c0.15 0.35-0.25 0.85-0.8 1.15-0.9 0.45-1.050 0.4-1.050-0.4 0-1.6 1.4-2.15 1.85-0.75zM8.25 22.5l1.95 2-1.35 1.35c-0.9 0.95-1.5 1.2-1.85 0.85s-0.2-0.8 0.5-1.45l1-0.9-1.050-1.15c-1-1.050-1.15-1.1-2.2-0.4-1.5 1-2.2 0-0.95-1.35 1.2-1.35 1.75-1.2 3.95 1.050zM3.2 23.95c0.35 0.5-1.1 1.85-1.5 1.4-0.45-0.4 0.15-1.85 0.75-1.85 0.25 0 0.6 0.2 0.75 0.45zM6.3 28.45c-0.4 0.65-1.8 0.75-1.8 0.15 0-0.2 0.25-0.65 0.6-1 0.7-0.7 1.7 0 1.2 0.85z"></path>
<path d="M17.85 6.75c1 1.35 1.65 1.6 1.65 0.6 0-0.85-1-1.85-1.85-1.85-0.55 0-0.45 0.3 0.2 1.25z"></path>
<path d="M18.75 10c0.15 0.25 0.4 0.5 0.55 0.5 0.1 0 0.2-0.25 0.2-0.5 0-0.3-0.25-0.5-0.55-0.5-0.25 0-0.35 0.2-0.2 0.5z"></path>
<path d="M9.5 17.75l-1.2 1.3 2.7 2.7 2.7-2.7-1.2-1.3c-0.65-0.7-1.3-1.25-1.5-1.25s-0.85 0.55-1.5 1.25zM12 18.25c0.65 0.8 0.3 1.75-0.75 1.75-0.9 0-1.4-0.85-1.050-1.75 0.35-0.95 1-0.95 1.8 0z"></path>
<path d="M24 22c0 0.25 0.25 0.5 0.55 0.5 0.25 0 0.35-0.25 0.2-0.5-0.15-0.3-0.4-0.5-0.55-0.5-0.1 0-0.2 0.2-0.2 0.5z"></path>
<path d="M22.5 28c0 0.25 0.25 0.5 0.5 0.5 0.3 0 0.5-0.25 0.5-0.5 0-0.3-0.2-0.5-0.5-0.5-0.25 0-0.5 0.2-0.5 0.5z"></path>
</symbol>
<symbol id="icon-diligence-icon" viewBox="0 0 32 32">
<path d="M29.35 4.35c-0.2 0.15-0.35 0.6-0.35 1 0 0.7-1.5 2.65-2.1 2.65-0.15 0-0.4-0.5-0.5-1.15-0.15-1.1-0.15-1.1-11.65-1.25-10.35-0.1-11.55-0.050-12.1 0.75-0.45 0.6-0.65 3.2-0.65 8.65 0 7.2-0.050 7.8-1 8.4-1.5 0.95-1.4 4 0.2 4.6 1.3 0.5 22.55 0.65 25.45 0.15 1.8-0.25 1.85-0.3 1.85-2.5 0-1.8-0.2-2.3-1-2.5-0.95-0.25-1-0.7-1-6.8 0-6.4 0.050-6.55 1.35-7.95 0.75-0.75 1.7-1.4 2.2-1.4 1.1 0 2.15-1.3 1.75-2.25-0.25-0.75-1.85-1.050-2.45-0.4zM31 5.5c0 0.25-0.2 0.5-0.5 0.5-0.25 0-0.5-0.25-0.5-0.5 0-0.3 0.25-0.5 0.5-0.5 0.3 0 0.5 0.2 0.5 0.5zM25.5 8.25c0 0.95-0.2 1.75-0.5 1.75-0.25 0-0.5-0.55-0.5-1.25v-1.25h-20v14.5l9.9-0.1 9.85-0.15 0.15-5.4c0.2-7.4 1.1-6.9 1.1 0.65v6h-22.5v-16.5h22.5v1.75zM23.5 9.85c0 0.9-0.65 2-1.85 3.25l-1.8 1.85-2.25-1.6-2.2-1.6-2.15 2.4c-2.25 2.4-3.4 2.7-3.9 0.8-0.25-1-2.050-1.3-2.6-0.45-0.7 1.1 0.3 2.5 1.65 2.45 0.75-0.050 1.7 0.050 2.15 0.25 0.55 0.25 1.45-0.35 2.9-1.95l2.1-2.3 2.1 1.55c2 1.45 2.050 1.45 3.050 0.6 2.9-2.5 2.8-2.6 2.8 1.85v4.050h-8.95c-6.7 0-9-0.15-9.15-0.65-0.15-0.45-0.1-11.2 0.050-11.75 0.050-0.050 4.1-0.1 9.050-0.1h9v1.35zM8.5 15.5c0 0.25-0.2 0.5-0.5 0.5-0.25 0-0.5-0.25-0.5-0.5 0-0.3 0.25-0.5 0.5-0.5 0.3 0 0.5 0.2 0.5 0.5zM11 25c0.45 0.85 1.050 1 3.55 1 2.6 0 3.1-0.15 3.3-1 0.25-0.9 0.7-1 4.95-1 2.6 0 4.75 0.15 4.75 0.35 0.050 0.25 0.1 0.95 0.15 1.65l0.050 1.25h-26.5l-0.15-1.65-0.15-1.6h4.75c4.25 0 4.8 0.1 5.3 1zM17 24.5c0 0.25-1.1 0.5-2.45 0.5-1.4 0-2.65-0.25-2.8-0.5-0.2-0.3 0.75-0.5 2.45-0.5 1.55 0 2.8 0.2 2.8 0.5z"></path>
<path d="M15 17.25c0 1.25 0.25 2.25 0.5 2.25 0.3 0 0.5-1 0.5-2.25s-0.2-2.25-0.5-2.25c-0.25 0-0.5 1-0.5 2.25z"></path>
<path d="M19.6 18.5c0 0.7 0.1 0.95 0.25 0.6 0.1-0.3 0.1-0.9 0-1.25-0.15-0.3-0.25-0.050-0.25 0.65z"></path>
<path d="M7.5 19c0 0.25 0.25 0.5 0.5 0.5 0.3 0 0.5-0.25 0.5-0.5 0-0.3-0.2-0.5-0.5-0.5-0.25 0-0.5 0.2-0.5 0.5z"></path>
</symbol>
<symbol id="icon-strategy-icon" viewBox="0 0 30 32">
<path d="M6.8 0.65c-0.65 0.5-0.85 1.050-0.65 1.8 0.15 0.6-0.050 1.9-0.45 2.8-0.85 2.1-0.9 7.85 0 10.3 0.35 1 1.25 2.6 1.95 3.55 1.15 1.5 1.35 2.2 1.35 5.3v3.6h-3.65c-3.95 0-5.65 0.9-5.25 2.85 0.15 0.85 1 0.9 12.8 1.050l12.6 0.1v-1.4c0-2.2-0.8-2.6-5.1-2.6h-3.9v-3h3.25c1.8 0 4.1-0.35 5.1-0.75 1.25-0.55 2-0.6 2.35-0.25s0.85 0.15 1.65-0.6l1.2-1.1-8.65-8.65 0.35-2.3c0.3-1.8 0.6-2.35 1.4-2.45 1.45-0.2 2.25-1.65 1.55-2.75-1.1-1.75-3.7-1.15-3.7 0.85 0 0.7-0.5 0.95-2.35 1.1l-2.4 0.25-4.25-4.2c-3.9-3.8-4.35-4.1-5.2-3.5zM18.25 12c5.75 5.75 10.3 10.65 10.1 10.85-0.4 0.35-21.35-20.25-21.35-20.95 0-0.25 0.15-0.4 0.4-0.4 0.2 0 5.050 4.7 10.85 10.5zM25.3 23.1c-1.35 0.75-5.45 1.4-7.1 1.1-1.55-0.3-1.7-0.45-1.7-2.2 0-2.95-2.6-4.6-5.2-3.25-2 1.050-2.15 1-3.5-1.2-1.55-2.45-2.35-6.6-1.8-9.55 0.9-4.65 0.3-4.9 10.55 5.3 6.55 6.55 9.25 9.55 8.75 9.8zM24 7c0 0.65-0.35 1-1 1s-1-0.35-1-1c0-0.65 0.35-1 1-1s1 0.35 1 1zM19.4 9.8c-0.45 0.45-1.050 0.65-1.35 0.5-1-0.65-0.55-1.3 0.8-1.3 1.25 0 1.3 0.050 0.55 0.8zM20.75 11.5c-0.25 0.8-0.5 0.95-0.9 0.55-0.35-0.35-0.3-0.75 0.15-1.3 0.35-0.4 0.75-0.65 0.85-0.55 0.15 0.1 0.1 0.7-0.1 1.3zM14.4 19.8c0.9 0.6 1.1 1.25 1.1 3.35v2.6l-2.75-0.15-2.75-0.2v-2.2c0-1.55 0.3-2.5 1-3.2 1.2-1.2 1.9-1.25 3.4-0.2zM15.5 27.3c0 0.6-0.5 0.7-2.6 0.6-3.7-0.2-3.85-1.4-0.2-1.4 2.2 0 2.8 0.15 2.8 0.8zM24.4 30.1c0.15 0.85-0.65 0.9-11.6 0.9-6.5 0-11.8-0.1-11.8-0.2s0.15-0.6 0.3-1c0.3-0.7 1.65-0.8 11.65-0.7 10.3 0.15 11.3 0.25 11.45 1z"></path>
<path d="M11.65 21.3c-0.2 0.55 0.050 1.1 0.65 1.55 0.8 0.6 1 0.55 1.55-0.15 0.45-0.65 0.5-1.050 0.1-1.55-0.8-0.9-1.9-0.8-2.3 0.15zM13.5 22.050c0 0.25-0.35 0.45-0.75 0.45-0.75 0-1-0.6-0.45-1.15 0.4-0.4 1.2 0.050 1.2 0.7z"></path>
</symbol>
<symbol id="icon-punctuality-icon" viewBox="0 0 32 32">
<path d="M11.1 0.95c-6.15 2.3-10.1 7.8-10.1 14.050 0 1.8 0.35 4.35 0.8 5.65 1.050 3.1 4.35 6.75 7.4 8.15 1.4 0.65 2.55 1.1 2.6 1.050s1-2.85 2.1-6.25c1.35-4.050 2.4-6.4 3.1-7 0.95-0.8 1.050-1.1 0.55-2-0.35-0.6-1.050-1.1-1.7-1.1-0.6 0-2.15-1.050-3.7-2.6-1.45-1.4-2.8-2.45-3-2.25s0.8 1.55 2.2 3c3.4 3.4 3.65 4.95 1.95 10.25-0.7 2.15-1.5 4.55-1.75 5.3l-0.55 1.35-1.95-1c-5.65-2.9-8.5-10.6-6.25-17.15 2.55-7.6 11.95-11.35 19.35-7.75 3.25 1.6 5 3.5 6.75 7.3 1.050 2.25 1.2 3.2 1 6.25-0.3 4.3-1.85 7.4-5.15 10.050-2.25 1.85-3.25 2.2-3.25 1.050 0-0.4-0.2-0.9-0.5-1.050-0.6-0.35-4.5 2.65-4.5 3.5 0 0.35 0.9 0.85 2.050 1.2s2.35 0.75 2.75 0.9c0.5 0.2 0.7-0.15 0.7-1.25 0-1.2 0.3-1.6 1.5-2.1 2.3-0.95 5.8-5.15 6.8-8.1 1.1-3.35 0.75-8.85-0.7-11.75-3.6-6.95-11.55-10.25-18.5-7.7zM16.5 15.25c0 0.4-0.2 0.75-0.5 0.75-0.25 0-0.5-0.35-0.5-0.75s0.25-0.75 0.5-0.75c0.3 0 0.5 0.35 0.5 0.75zM20.5 28.75c0 1.25-0.2 1.5-1 1.3-1.1-0.25-1.2-0.45-0.5-1.3 0.8-0.95 1.5-0.95 1.5 0z"></path>
<path d="M15.5 3.75c0 0.4 0.25 0.75 0.5 0.75 0.3 0 0.5-0.35 0.5-0.75s-0.2-0.75-0.5-0.75c-0.25 0-0.5 0.35-0.5 0.75z"></path>
<path d="M3.5 15.5c0 0.25 0.3 0.5 0.7 0.5s0.9-0.25 1.050-0.5c0.15-0.3-0.15-0.5-0.7-0.5-0.6 0-1.050 0.2-1.050 0.5z"></path>
<path d="M26.75 15.5c0.15 0.25 0.65 0.5 1.050 0.5s0.7-0.25 0.7-0.5c0-0.3-0.45-0.5-1.050-0.5-0.55 0-0.85 0.2-0.7 0.5z"></path>
</symbol>
<symbol id="icon-twittersvg" viewBox="0 0 32 32">
<path d="M32 7.075c-1.175 0.525-2.444 0.875-3.769 1.031 1.356-0.813 2.394-2.1 2.887-3.631-1.269 0.75-2.675 1.3-4.169 1.594-1.2-1.275-2.906-2.069-4.794-2.069-3.625 0-6.563 2.938-6.563 6.563 0 0.512 0.056 1.012 0.169 1.494-5.456-0.275-10.294-2.888-13.531-6.862-0.563 0.969-0.887 2.1-0.887 3.3 0 2.275 1.156 4.287 2.919 5.463-1.075-0.031-2.087-0.331-2.975-0.819v0.081c0 3.181 2.263 5.838 5.269 6.437-0.55 0.15-1.131 0.231-1.731 0.231-0.425 0-0.831-0.044-1.237-0.119 0.838 2.606 3.263 4.506 6.131 4.563-2.25 1.762-5.075 2.813-8.156 2.813-0.531 0-1.050-0.031-1.569-0.094 2.913 1.869 6.362 2.95 10.069 2.95 12.075 0 18.681-10.006 18.681-18.681 0-0.287-0.006-0.569-0.019-0.85 1.281-0.919 2.394-2.075 3.275-3.394z"></path>
</symbol>
<symbol id="icon-facebooksvg" viewBox="0 0 32 32">
<path d="M19 6h5v-6h-5c-3.86 0-7 3.14-7 7v3h-4v6h4v16h6v-16h5l1-6h-6v-3c0-0.542 0.458-1 1-1z"></path>
</symbol>
<symbol id="icon-instagramsvg" viewBox="0 0 32 32">
<path d="M16 2.881c4.275 0 4.781 0.019 6.462 0.094 1.563 0.069 2.406 0.331 2.969 0.55 0.744 0.288 1.281 0.638 1.837 1.194 0.563 0.563 0.906 1.094 1.2 1.838 0.219 0.563 0.481 1.412 0.55 2.969 0.075 1.688 0.094 2.194 0.094 6.463s-0.019 4.781-0.094 6.463c-0.069 1.563-0.331 2.406-0.55 2.969-0.288 0.744-0.637 1.281-1.194 1.837-0.563 0.563-1.094 0.906-1.837 1.2-0.563 0.219-1.413 0.481-2.969 0.55-1.688 0.075-2.194 0.094-6.463 0.094s-4.781-0.019-6.463-0.094c-1.563-0.069-2.406-0.331-2.969-0.55-0.744-0.288-1.281-0.637-1.838-1.194-0.563-0.563-0.906-1.094-1.2-1.837-0.219-0.563-0.481-1.413-0.55-2.969-0.075-1.688-0.094-2.194-0.094-6.463s0.019-4.781 0.094-6.463c0.069-1.563 0.331-2.406 0.55-2.969 0.288-0.744 0.638-1.281 1.194-1.838 0.563-0.563 1.094-0.906 1.838-1.2 0.563-0.219 1.412-0.481 2.969-0.55 1.681-0.075 2.188-0.094 6.463-0.094zM16 0c-4.344 0-4.887 0.019-6.594 0.094-1.7 0.075-2.869 0.35-3.881 0.744-1.056 0.412-1.95 0.956-2.837 1.85-0.894 0.888-1.438 1.781-1.85 2.831-0.394 1.019-0.669 2.181-0.744 3.881-0.075 1.713-0.094 2.256-0.094 6.6s0.019 4.887 0.094 6.594c0.075 1.7 0.35 2.869 0.744 3.881 0.413 1.056 0.956 1.95 1.85 2.837 0.887 0.887 1.781 1.438 2.831 1.844 1.019 0.394 2.181 0.669 3.881 0.744 1.706 0.075 2.25 0.094 6.594 0.094s4.888-0.019 6.594-0.094c1.7-0.075 2.869-0.35 3.881-0.744 1.050-0.406 1.944-0.956 2.831-1.844s1.438-1.781 1.844-2.831c0.394-1.019 0.669-2.181 0.744-3.881 0.075-1.706 0.094-2.25 0.094-6.594s-0.019-4.887-0.094-6.594c-0.075-1.7-0.35-2.869-0.744-3.881-0.394-1.063-0.938-1.956-1.831-2.844-0.887-0.887-1.781-1.438-2.831-1.844-1.019-0.394-2.181-0.669-3.881-0.744-1.712-0.081-2.256-0.1-6.6-0.1z"></path>
<path d="M16 7.781c-4.537 0-8.219 3.681-8.219 8.219s3.681 8.219 8.219 8.219 8.219-3.681 8.219-8.219-3.681-8.219-8.219-8.219zM16 21.331c-2.944 0-5.331-2.387-5.331-5.331s2.387-5.331 5.331-5.331c2.944 0 5.331 2.387 5.331 5.331s-2.387 5.331-5.331 5.331zM26.462 7.456c0 1.060-0.859 1.919-1.919 1.919s-1.919-0.859-1.919-1.919 0.859-1.919 1.919-1.919 1.919 0.859 1.919 1.919z"></path>
</symbol>
<symbol id="icon-linkedinsvg" viewBox="0 0 32 32">
<path d="M12 12h5.535v2.837h0.079c0.77-1.381 2.655-2.837 5.464-2.837 5.842 0 6.922 3.637 6.922 8.367v9.633h-5.769v-8.54c0-2.037-0.042-4.657-3.001-4.657-3.005 0-3.463 2.218-3.463 4.509v8.688h-5.767v-18zM2 12h6v18h-6v-18zM8 7c0 1.657-1.343 3-3 3s-3-1.343-3-3 1.343-3 3-3 3 1.343 3 3z"></path>
</symbol>
</defs>
</svg>
